<?xml version="1.0" standalone="no"?><!-- Generator: Gravit.io --><svg xmlns="http://www.w3.org/2000/svg" xmlns:xlink="http://www.w3.org/1999/xlink" style="isolation:isolate" viewBox="334 134 575 580" width="575" height="580"><defs><clipPath id="_clipPath_BeTGuhjReKsgO3S7eFZ7bdwtGPixsYBj"><rect x="334" y="134" width="575" height="580"/></clipPath></defs><g clip-path="url(#_clipPath_BeTGuhjReKsgO3S7eFZ7bdwtGPixsYBj)"><g><g><path d=" M 769.887 395.935 L 855.062 395.935 C 858.902 406.798 869.105 414.645 881.177 414.645 C 896.515 414.645 909 402.052 909 386.581 C 909 371.11 896.515 358.516 881.177 358.516 C 869.105 358.516 858.902 366.364 855.062 377.226 L 769.887 377.226 L 769.887 358.516 L 797.71 358.516 C 800.178 358.516 802.532 357.534 804.267 355.775 L 838.647 321.097 L 855.062 321.097 C 858.902 331.959 869.105 339.806 881.177 339.806 C 896.515 339.806 909 327.213 909 311.742 C 909 296.271 896.515 283.677 881.177 283.677 C 869.105 283.677 858.902 291.525 855.062 302.387 L 834.806 302.387 C 832.338 302.387 829.984 303.369 828.249 305.128 L 793.87 339.806 L 769.887 339.806 L 769.887 330.452 C 769.887 327.971 768.913 325.587 767.17 323.837 L 720.799 277.063 C 719.065 275.305 716.71 274.323 714.242 274.323 L 667.871 274.323 L 667.871 262.095 L 736.055 236.305 C 739.664 234.939 742.065 231.449 742.065 227.548 L 742.065 188.407 C 752.833 184.533 760.613 174.242 760.613 162.065 C 760.613 146.593 748.128 134 732.79 134 C 717.453 134 704.968 146.593 704.968 162.065 C 704.968 174.242 712.748 184.533 723.516 188.407 L 723.516 221.067 L 667.871 242.115 L 667.871 225.826 C 678.64 221.953 686.419 211.662 686.419 199.484 C 686.419 184.013 673.935 171.419 658.597 171.419 C 643.259 171.419 630.774 184.013 630.774 199.484 C 630.774 211.662 638.554 221.953 649.323 225.826 L 649.323 274.323 L 593.677 274.323 L 593.677 188.407 C 604.446 184.533 612.226 174.242 612.226 162.065 C 612.226 146.593 599.741 134 584.403 134 C 569.065 134 556.581 146.593 556.581 162.065 C 556.581 174.242 564.36 184.533 575.129 188.407 L 575.129 274.323 L 556.581 274.323 L 556.581 246.258 C 556.581 243.778 555.607 241.393 553.864 239.644 L 519.484 204.965 L 519.484 188.407 C 530.252 184.533 538.032 174.242 538.032 162.065 C 538.032 146.593 525.547 134 510.21 134 C 494.872 134 482.387 146.593 482.387 162.065 C 482.387 174.242 490.167 184.533 500.935 188.407 L 500.935 208.839 C 500.935 211.319 501.909 213.703 503.653 215.453 L 538.032 250.132 L 538.032 274.323 L 528.758 274.323 C 526.29 274.323 523.935 275.305 522.201 277.063 L 475.83 323.837 C 474.087 325.587 473.113 327.971 473.113 330.452 L 473.113 377.226 L 460.99 377.226 L 435.423 308.458 C 434.069 304.808 430.609 302.387 426.742 302.387 L 387.938 302.387 C 384.098 291.525 373.895 283.677 361.823 283.677 C 346.485 283.677 334 296.271 334 311.742 C 334 327.213 346.485 339.806 361.823 339.806 C 373.895 339.806 384.098 331.959 387.938 321.097 L 420.316 321.097 L 441.183 377.226 L 425.035 377.226 C 421.195 366.364 410.992 358.516 398.919 358.516 C 383.582 358.516 371.097 371.11 371.097 386.581 C 371.097 402.052 383.582 414.645 398.919 414.645 C 410.992 414.645 421.195 406.798 425.035 395.935 L 473.113 395.935 L 473.113 452.065 L 387.938 452.065 C 384.098 441.202 373.895 433.355 361.823 433.355 C 346.485 433.355 334 445.948 334 461.419 C 334 476.89 346.485 489.484 361.823 489.484 C 373.895 489.484 384.098 481.636 387.938 470.774 L 473.113 470.774 L 473.113 489.484 L 445.29 489.484 C 442.822 489.484 440.468 490.466 438.733 492.225 L 404.353 526.903 L 387.938 526.903 C 384.098 516.041 373.895 508.194 361.823 508.194 C 346.485 508.194 334 520.787 334 536.258 C 334 551.729 346.485 564.323 361.823 564.323 C 373.895 564.323 384.098 556.475 387.938 545.613 L 408.194 545.613 C 410.662 545.613 413.016 544.631 414.751 542.872 L 449.13 508.194 L 473.113 508.194 L 473.113 517.548 C 473.113 520.038 474.087 522.413 475.83 524.163 L 522.201 570.937 C 523.935 572.695 526.29 573.677 528.758 573.677 L 575.129 573.677 L 575.129 585.905 L 506.945 611.695 C 503.336 613.061 500.935 616.551 500.935 620.452 L 500.935 659.593 C 490.167 663.467 482.387 673.758 482.387 685.935 C 482.387 701.407 494.872 714 510.21 714 C 525.547 714 538.032 701.407 538.032 685.935 C 538.032 673.758 530.252 663.467 519.484 659.593 L 519.484 626.933 L 575.129 605.885 L 575.129 622.174 C 564.36 626.047 556.581 636.338 556.581 648.516 C 556.581 663.987 569.065 676.581 584.403 676.581 C 599.741 676.581 612.226 663.987 612.226 648.516 C 612.226 636.338 604.446 626.047 593.677 622.174 L 593.677 573.677 L 649.323 573.677 L 649.323 659.593 C 638.554 663.467 630.774 673.758 630.774 685.935 C 630.774 701.407 643.259 714 658.597 714 C 673.935 714 686.419 701.407 686.419 685.935 C 686.419 673.758 678.64 663.467 667.871 659.593 L 667.871 573.677 L 686.419 573.677 L 686.419 601.742 C 686.419 604.231 687.393 606.607 689.136 608.356 L 723.516 643.035 L 723.516 659.593 C 712.748 663.467 704.968 673.758 704.968 685.935 C 704.968 701.407 717.453 714 732.79 714 C 748.128 714 760.613 701.407 760.613 685.935 C 760.613 673.758 752.833 663.467 742.065 659.593 L 742.065 639.161 C 742.065 636.672 741.091 634.297 739.347 632.547 L 704.968 597.868 L 704.968 573.677 L 714.242 573.677 C 716.71 573.677 719.065 572.695 720.799 570.937 L 767.17 524.163 C 768.913 522.413 769.887 520.038 769.887 517.548 L 769.887 470.774 L 782.01 470.774 L 807.577 539.551 C 808.931 543.192 812.391 545.613 816.258 545.613 L 855.062 545.613 C 858.902 556.475 869.105 564.323 881.177 564.323 C 896.515 564.323 909 551.729 909 536.258 C 909 520.787 896.515 508.194 881.177 508.194 C 869.105 508.194 858.902 516.041 855.062 526.903 L 822.684 526.903 L 801.817 470.774 L 817.965 470.774 C 821.805 481.636 832.008 489.484 844.081 489.484 C 859.418 489.484 871.903 476.89 871.903 461.419 C 871.903 445.948 859.418 433.355 844.081 433.355 C 832.008 433.355 821.805 441.202 817.965 452.065 L 769.887 452.065 L 769.887 395.935 Z  M 881.177 377.226 C 886.295 377.226 890.452 381.428 890.452 386.581 C 890.452 391.733 886.295 395.935 881.177 395.935 C 876.06 395.935 871.903 391.733 871.903 386.581 C 871.903 381.428 876.06 377.226 881.177 377.226 Z  M 881.177 302.387 C 886.295 302.387 890.452 306.589 890.452 311.742 C 890.452 316.894 886.295 321.097 881.177 321.097 C 876.06 321.097 871.903 316.894 871.903 311.742 C 871.903 306.589 876.06 302.387 881.177 302.387 Z  M 732.79 152.71 C 737.907 152.71 742.065 156.912 742.065 162.065 C 742.065 167.217 737.907 171.419 732.79 171.419 C 727.673 171.419 723.516 167.217 723.516 162.065 C 723.516 156.912 727.673 152.71 732.79 152.71 Z  M 658.597 190.129 C 663.714 190.129 667.871 194.331 667.871 199.484 C 667.871 204.636 663.714 208.839 658.597 208.839 C 653.48 208.839 649.323 204.636 649.323 199.484 C 649.323 194.331 653.48 190.129 658.597 190.129 Z  M 584.403 152.71 C 589.52 152.71 593.677 156.912 593.677 162.065 C 593.677 167.217 589.52 171.419 584.403 171.419 C 579.286 171.419 575.129 167.217 575.129 162.065 C 575.129 156.912 579.286 152.71 584.403 152.71 Z  M 510.21 152.71 C 515.327 152.71 519.484 156.912 519.484 162.065 C 519.484 167.217 515.327 171.419 510.21 171.419 C 505.093 171.419 500.935 167.217 500.935 162.065 C 500.935 156.912 505.093 152.71 510.21 152.71 Z  M 361.823 321.097 C 356.705 321.097 352.548 316.894 352.548 311.742 C 352.548 306.589 356.705 302.387 361.823 302.387 C 366.94 302.387 371.097 306.589 371.097 311.742 C 371.097 316.894 366.94 321.097 361.823 321.097 Z  M 398.919 395.935 C 393.802 395.935 389.645 391.733 389.645 386.581 C 389.645 381.428 393.802 377.226 398.919 377.226 C 404.036 377.226 408.194 381.428 408.194 386.581 C 408.194 391.733 404.036 395.935 398.919 395.935 Z  M 361.823 470.774 C 356.705 470.774 352.548 466.581 352.548 461.419 C 352.548 456.258 356.705 452.065 361.823 452.065 C 366.94 452.065 371.097 456.258 371.097 461.419 C 371.097 466.581 366.94 470.774 361.823 470.774 Z  M 361.823 545.613 C 356.705 545.613 352.548 541.42 352.548 536.258 C 352.548 531.096 356.705 526.903 361.823 526.903 C 366.94 526.903 371.097 531.096 371.097 536.258 C 371.097 541.42 366.94 545.613 361.823 545.613 Z  M 510.21 695.29 C 505.093 695.29 500.935 691.097 500.935 685.935 C 500.935 680.774 505.093 676.581 510.21 676.581 C 515.327 676.581 519.484 680.774 519.484 685.935 C 519.484 691.097 515.327 695.29 510.21 695.29 Z  M 584.403 657.871 C 579.286 657.871 575.129 653.678 575.129 648.516 C 575.129 643.355 579.286 639.161 584.403 639.161 C 589.52 639.161 593.677 643.355 593.677 648.516 C 593.677 653.678 589.52 657.871 584.403 657.871 Z  M 658.597 695.29 C 653.48 695.29 649.323 691.097 649.323 685.935 C 649.323 680.774 653.48 676.581 658.597 676.581 C 663.714 676.581 667.871 680.774 667.871 685.935 C 667.871 691.097 663.714 695.29 658.597 695.29 Z  M 732.79 695.29 C 727.673 695.29 723.516 691.097 723.516 685.935 C 723.516 680.774 727.673 676.581 732.79 676.581 C 737.907 676.581 742.065 680.774 742.065 685.935 C 742.065 691.097 737.907 695.29 732.79 695.29 Z  M 881.177 526.903 C 886.295 526.903 890.452 531.096 890.452 536.258 C 890.452 541.42 886.295 545.613 881.177 545.613 C 876.06 545.613 871.903 541.42 871.903 536.258 C 871.903 531.096 876.06 526.903 881.177 526.903 Z  M 844.081 452.065 C 849.198 452.065 853.355 456.258 853.355 461.419 C 853.355 466.581 849.198 470.774 844.081 470.774 C 838.964 470.774 834.806 466.581 834.806 461.419 C 834.806 456.258 838.964 452.065 844.081 452.065 Z  M 751.339 513.675 L 710.402 554.968 L 532.598 554.968 L 491.661 513.675 L 491.661 334.325 L 532.598 293.032 L 710.402 293.032 L 751.339 334.325 L 751.339 513.675 Z " fill="rgb(119,144,255)"/></g><g><defs><filter id="L7mWyo9Th2b0774dcnNupSjzBKbPoiQh" x="428.5" y="231" width="386" height="386" filterUnits="userSpaceOnUse"><feGaussianBlur xmlns="http://www.w3.org/2000/svg" in="SourceGraphic" stdDeviation="4.293609062839028"/><feOffset xmlns="http://www.w3.org/2000/svg" dx="0" dy="0" result="pf_100_offsetBlur"/><feFlood xmlns="http://www.w3.org/2000/svg" flood-color="#464545" flood-opacity="0.35"/><feComposite xmlns="http://www.w3.org/2000/svg" in2="pf_100_offsetBlur" operator="in" result="pf_100_dropShadow"/><feBlend xmlns="http://www.w3.org/2000/svg" in="SourceGraphic" in2="pf_100_dropShadow" mode="normal"/></filter></defs><g filter="url(#L7mWyo9Th2b0774dcnNupSjzBKbPoiQh)"><circle vector-effect="non-scaling-stroke" cx="0" cy="0" r="1" transform="matrix(180,0,0,180,621.5,424)" fill="rgb(252,252,252)"/></g><g><defs><filter id="FMnBh0CuxHSw6OhxVTdpyEHXS29pLUSn" x="566.16" y="380.743" width="110.68" height="99.203" filterUnits="userSpaceOnUse"><feOffset xmlns="http://www.w3.org/2000/svg" in="SourceGraphic" dx="-0.3" dy="0.3"/><feGaussianBlur xmlns="http://www.w3.org/2000/svg" stdDeviation="1.7174436251356113" result="pf_100_offsetBlur"/><feComposite xmlns="http://www.w3.org/2000/svg" in="SourceGraphic" in2="pf_100_offsetBlur" result="pf_100_inverse" operator="out"/><feFlood xmlns="http://www.w3.org/2000/svg" flood-color="#000000" flood-opacity="0.5" result="pf_100_color"/><feComposite xmlns="http://www.w3.org/2000/svg" in="pf_100_color" in2="pf_100_inverse" operator="in" result="pf_100_shadow"/><feComposite xmlns="http://www.w3.org/2000/svg" in="pf_100_shadow" in2="SourceGraphic" operator="over"/></filter></defs><g filter="url(#FMnBh0CuxHSw6OhxVTdpyEHXS29pLUSn)"><path d=" M 621.5 393.673 L 618.173 390.4 C 606.377 379.245 587.848 379.498 576.36 390.97 C 564.873 402.443 564.597 420.972 575.736 432.782 L 621.5 478.545 L 667.264 432.727 C 678.403 420.917 678.127 402.388 666.64 390.916 C 655.152 379.443 636.623 379.191 624.827 390.345 L 621.5 393.673 Z " fill="rgb(255,101,101)" vector-effect="non-scaling-stroke" stroke-width="0.7" stroke="rgb(0,0,0)" stroke-linejoin="miter" stroke-linecap="butt" stroke-miterlimit="4"/></g></g></g></g></g></svg>